<svg xmlns="http://www.w3.org/2000/svg" viewBox="0 0 43 43" width="43" height="43">
	<style>
		tspan { white-space:pre }
		.shp0 { fill: #ffffff } 
	</style>
	<path id="Shape 5" class="shp0" d="M21.5 1C10.2 1 1 10.2 1 21.5C1 32.8 10.2 42 21.5 42C32.8 42 42 32.8 42 21.5C42 10.2 32.8 1 21.5 1ZM21.5 38.83C11.94 38.83 4.17 31.06 4.17 21.5C4.17 11.94 11.94 4.17 21.5 4.17C31.06 4.17 38.83 11.94 38.83 21.5C38.83 31.06 31.06 38.83 21.5 38.83ZM21.5 13.61C17.15 13.61 13.61 17.15 13.61 21.5C13.61 25.85 17.15 29.39 21.5 29.39C25.85 29.39 29.39 25.85 29.39 21.5C29.39 17.15 25.85 13.61 21.5 13.61ZM21.5 26.22C18.9 26.22 16.78 24.1 16.78 21.5C16.78 18.9 18.9 16.78 21.5 16.78C24.1 16.78 26.22 18.9 26.22 21.5C26.22 24.1 24.1 26.22 21.5 26.22Z" />
</svg>