<svg xmlns="http://www.w3.org/2000/svg" width="43" height="43"><style></style><path id="Shape 5" d="M21.5 1C10.2 1 1 10.2 1 21.5S10.2 42 21.5 42 42 32.8 42 21.5 32.8 1 21.5 1zm0 37.83c-9.56 0-17.33-7.77-17.33-17.33 0-9.56 7.77-17.33 17.33-17.33 9.56 0 17.33 7.77 17.33 17.33 0 9.56-7.77 17.33-17.33 17.33zm0-25.22c-4.35 0-7.89 3.54-7.89 7.89s3.54 7.89 7.89 7.89 7.89-3.54 7.89-7.89-3.54-7.89-7.89-7.89zm0 12.61c-2.6 0-4.72-2.12-4.72-4.72 0-2.6 2.12-4.72 4.72-4.72 2.6 0 4.72 2.12 4.72 4.72 0 2.6-2.12 4.72-4.72 4.72z" fill="#fff"/></svg>